<?xml version="1.0" encoding="utf-8" ?>
<svg xmlns="http://www.w3.org/2000/svg" xmlns:xlink="http://www.w3.org/1999/xlink" width="50" height="53">
	<path fill="rgb(216,216,216)" stroke="none" transform="matrix(0.9905 0 0 0.9905 0.974976 0.783997)" d="M25 50C38.8071 50 50 38.8071 50 25C50 11.1929 38.8071 0 25 0C11.1929 0 0 11.1929 0 25C0 38.8071 11.1929 50 25 50Z"/>
	<defs>
		<clipPath id="clip_0">
			<path d="M50.5 25.5465C50.5 39.2224 39.4134 50.309 25.7375 50.309C12.0615 50.309 0.974976 39.2224 0.974976 25.5465C0.974976 11.8705 12.0615 0.783997 25.7375 0.783997C39.4134 0.783997 50.5 11.8705 50.5 25.5465Z" clip-rule="evenodd"/>
		</clipPath>
	</defs>
	<g clip-path="url(#clip_0)">
		<path fill="rgb(201,201,201)" stroke="none" transform="matrix(0.9905 0 0 0.9905 4.07031 10.689)" d="M28.8316 29.5566C32.9386 29.8912 34.6293 30.4117 34.7029 30.4348C40.6695 32.0737 43.5852 35.8675 43.5852 41.5784L43.5852 42.5L0 42.5L0 41.5784C0 36.3555 2.72407 32.7744 8.83145 30.4533C8.89955 30.4154 10.2371 29.8099 14.6755 29.4808C14.9715 28.7468 15.1858 27.7282 15.3039 26.4821C11.916 23.7246 9.90837 19.1091 9.90837 14.0148C9.90837 6.34597 10.8037 0 21.8044 0C32.8115 0 33.7068 6.34597 33.7068 14.0148C33.7068 19.0712 31.6211 23.8189 28.2341 26.5431C28.3331 27.7975 28.5347 28.8226 28.8316 29.5566ZM9.53245 32.1532C4.42299 34.0982 2.14748 36.7484 1.84965 40.6558L41.7383 40.6558C41.455 36.3269 39.095 33.5528 34.1962 32.205C34.1499 32.1921 32.4101 31.667 28.1733 31.3555L27.6839 31.3185L27.4469 30.8831C26.8576 29.8127 26.5025 28.2236 26.389 26.1595L26.3609 25.6575L26.7631 25.3617C29.9258 23.0387 31.8907 18.6894 31.8907 14.0148C31.8907 6.66304 31.1888 1.84417 21.8044 1.84417C12.4263 1.84417 11.7244 6.66304 11.7244 14.0148C11.7244 18.6552 13.6649 22.9851 16.7857 25.3136L17.1907 25.6159L17.1544 26.1216C17.01 28.1709 16.6405 29.748 16.0566 30.811L15.816 31.2501L15.3229 31.2825C10.8645 31.5764 9.54516 32.1477 9.53245 32.1532Z" fill-rule="evenodd"/>
	</g>
</svg>
